<svg width="40" height="40" viewBox="0 0 40 40" fill="none" xmlns="http://www.w3.org/2000/svg">
<path id="Add Button" d="M10.0215 0.000627437C4.49864 0.000627437 0 4.49976 0 10.0225V29.9782C0 35.5009 4.49801 40 10.0215 40H29.9779C35.5007 40 40 35.5009 40 29.9782V10.0218C40 4.49913 35.5007 0 29.9779 0L10.0215 0.000627437ZM10.0215 3.34904H29.9779C33.7041 3.34904 36.6521 6.29637 36.6521 10.0225V29.9782C36.6521 33.7043 33.7041 36.651 29.9779 36.651H10.0215C6.29531 36.651 3.34788 33.7043 3.34788 29.9782V10.0218C3.34788 6.29574 6.29531 3.34904 10.0215 3.34904ZM20.3935 8.45295C19.9497 8.45928 19.5267 8.64156 19.2173 8.95972C18.9079 9.27788 18.7375 9.70587 18.7436 10.1496V18.2167H10.6775C10.4539 18.2105 10.2314 18.2492 10.023 18.3306C9.81457 18.4119 9.62459 18.5342 9.46426 18.6901C9.30392 18.8461 9.17647 19.0327 9.08945 19.2387C9.00243 19.4448 8.95759 19.6662 8.95759 19.8899C8.95759 20.1136 9.00243 20.3351 9.08945 20.5411C9.17647 20.7472 9.30392 20.9337 9.46426 21.0897C9.62459 21.2457 9.81457 21.368 10.023 21.4493C10.2314 21.5306 10.4539 21.5693 10.6775 21.5632H18.7436V29.629C18.7393 29.8516 18.7794 30.0728 18.8616 30.2797C18.9438 30.4866 19.0664 30.6751 19.2223 30.834C19.3782 30.993 19.5642 31.1193 19.7695 31.2055C19.9748 31.2917 20.1952 31.3361 20.4179 31.3361C20.6405 31.3361 20.8609 31.2917 21.0662 31.2055C21.2715 31.1193 21.4575 30.993 21.6134 30.834C21.7693 30.6751 21.8919 30.4866 21.9741 30.2797C22.0563 30.0728 22.0964 29.8516 22.0921 29.629V21.5632H30.1582C30.3818 21.5693 30.6043 21.5306 30.8127 21.4493C31.0211 21.368 31.2111 21.2457 31.3714 21.0897C31.5318 20.9337 31.6592 20.7472 31.7463 20.5411C31.8333 20.3351 31.8781 20.1136 31.8781 19.8899C31.8781 19.6662 31.8333 19.4448 31.7463 19.2387C31.6592 19.0327 31.5318 18.8461 31.3714 18.6901C31.2111 18.5342 31.0211 18.4119 30.8127 18.3306C30.6043 18.2492 30.3818 18.2105 30.1582 18.2167H22.0921V10.1496C22.0952 9.92579 22.0533 9.70363 21.969 9.49627C21.8847 9.28891 21.7597 9.10056 21.6013 8.94237C21.4429 8.78418 21.2545 8.65937 21.047 8.5753C20.8395 8.49124 20.6173 8.44963 20.3935 8.45295Z" fill="white"/>
</svg>
