<svg width="12" height="12" viewBox="0 0 12 12" fill="none" xmlns="http://www.w3.org/2000/svg">
<g id="bitcoin-(btc)">
<path id="Vector (Stroke)" fill-rule="evenodd" clip-rule="evenodd" d="M6 0.837209C3.14867 0.837209 0.837209 3.14867 0.837209 6C0.837209 8.85133 3.14867 11.1628 6 11.1628C8.85133 11.1628 11.1628 8.85133 11.1628 6C11.1628 3.14867 8.85133 0.837209 6 0.837209ZM0 6C0 2.68629 2.68629 0 6 0C9.31371 0 12 2.68629 12 6C12 9.31371 9.31371 12 6 12C2.68629 12 0 9.31371 0 6Z" fill="#FFCA11"/>
<path id="-" d="M7.29321 6.55814C7.17529 6.55814 7.11633 6.51163 7.11633 6.4186V6.13953C7.11633 6.04651 7.17529 6 7.29321 6H9.17202C9.28993 6 9.34889 6.04651 9.34889 6.13953V6.4186C9.34889 6.51163 9.28993 6.55814 9.17202 6.55814H7.29321Z" fill="black"/>
<path id="-_2" d="M2.73956 6.55814C2.6806 6.55814 2.65112 6.51163 2.65112 6.4186V6.13953C2.65112 6.04651 2.6806 6 2.73956 6H3.67896C3.73792 6 3.7674 6.04651 3.7674 6.13953V6.4186C3.7674 6.51163 3.73792 6.55814 3.67896 6.55814H2.73956Z" fill="black"/>
<path id="K" d="M4.32556 3.39295L5.41011 3.25423L5.4406 5.89397L5.64531 5.92661L7.28302 3.20935L8.23254 3.73567C8.06703 4.07022 7.85941 4.40478 7.60969 4.73934L7.06088 5.45741L6.72985 5.85317C6.62532 5.97557 6.52805 6.08029 6.43803 6.16733C6.66742 6.38764 6.83875 6.55764 6.95199 6.67732C7.52403 7.30292 7.932 7.80475 8.17592 8.18283L7.28302 8.79075L5.77598 6.6202L5.40575 6.77932L5.33171 8.55819L4.36041 8.63979L4.32556 3.39295ZM4.94841 6.97108C4.94841 6.9738 4.94841 6.97516 4.94841 6.97516C4.95132 6.97516 4.95277 6.9738 4.95277 6.97108H4.94841Z" fill="black"/>
</g>
</svg>
