<svg width="14" height="14" viewBox="0 0 14 14" fill="none" xmlns="http://www.w3.org/2000/svg">
<path fill-rule="evenodd" clip-rule="evenodd" d="M7 0.976744C3.67345 0.976744 0.976744 3.67345 0.976744 7C0.976744 10.3266 3.67345 13.0233 7 13.0233C10.3266 13.0233 13.0233 10.3266 13.0233 7C13.0233 3.67345 10.3266 0.976744 7 0.976744ZM0 7C0 3.13401 3.13401 0 7 0C10.866 0 14 3.13401 14 7C14 10.866 10.866 14 7 14C3.13401 14 0 10.866 0 7Z" fill="#FFCA11"/>
<path d="M8.5086 7.65116C8.37103 7.65116 8.30225 7.5969 8.30225 7.48837V7.16279C8.30225 7.05426 8.37103 7 8.5086 7H10.7005C10.8381 7 10.9069 7.05426 10.9069 7.16279V7.48837C10.9069 7.5969 10.8381 7.65116 10.7005 7.65116H8.5086Z" fill="black"/>
<path d="M3.19619 7.65116C3.12741 7.65116 3.09302 7.5969 3.09302 7.48837V7.16279C3.09302 7.05426 3.12741 7 3.19619 7H4.29217C4.36095 7 4.39534 7.05426 4.39534 7.16279V7.48837C4.39534 7.5969 4.36095 7.65116 4.29217 7.65116H3.19619Z" fill="black"/>
<path d="M5.04663 3.9583L6.31193 3.79646L6.3475 6.87616L6.58634 6.91424L8.49699 3.7441L9.60477 4.35814C9.41167 4.74845 9.16945 5.13877 8.87811 5.52909L8.23784 6.36684L7.85164 6.82856C7.72968 6.97135 7.6162 7.09353 7.51118 7.19507C7.7788 7.45211 7.97868 7.65044 8.1108 7.79007C8.77817 8.51993 9.25414 9.1054 9.53871 9.54649L8.49699 10.2557L6.73878 7.72343L6.30685 7.90907L6.22047 9.98441L5.08728 10.0796L5.04663 3.9583ZM5.77329 8.13278C5.77329 8.13596 5.77329 8.13755 5.77329 8.13755C5.77668 8.13755 5.77837 8.13596 5.77837 8.13278H5.77329Z" fill="black"/>
</svg>
