<svg width="26" height="26" viewBox="0 0 26 26" fill="none" xmlns="http://www.w3.org/2000/svg">
<g id="data">
<path id="Vector" d="M10.8334 21.6667C10.8334 22.8633 11.8035 23.8333 13.0001 23.8333C14.1967 23.8333 15.1667 22.8633 15.1667 21.6667C15.1667 20.47 14.1967 19.5 13.0001 19.5C11.8035 19.5 10.8334 20.47 10.8334 21.6667Z" stroke="#484848" stroke-width="1.8" stroke-linecap="round" stroke-linejoin="round"/>
<path id="Vector_2" d="M19.4999 21.6667C19.4999 22.8633 20.47 23.8333 21.6666 23.8333C22.8632 23.8333 23.8333 22.8633 23.8333 21.6667C23.8333 20.47 22.8632 19.5 21.6666 19.5C20.47 19.5 19.4999 20.47 19.4999 21.6667Z" stroke="#484848" stroke-width="1.8" stroke-linecap="round" stroke-linejoin="round"/>
<path id="Vector_3" d="M2.16667 21.6667C2.16667 22.8633 3.13672 23.8333 4.33333 23.8333C5.52995 23.8333 6.5 22.8633 6.5 21.6667C6.5 20.47 5.52995 19.5 4.33333 19.5C3.13672 19.5 2.16667 20.47 2.16667 21.6667Z" stroke="#484848" stroke-width="1.8" stroke-linecap="round" stroke-linejoin="round"/>
<path id="Vector_4" d="M10.8334 4.33332C10.8334 5.52994 11.8035 6.49999 13.0001 6.49999C14.1967 6.49999 15.1667 5.52994 15.1667 4.33332C15.1667 3.13671 14.1967 2.16666 13.0001 2.16666C11.8035 2.16666 10.8334 3.13671 10.8334 4.33332Z" stroke="#484848" stroke-width="1.8" stroke-linecap="round" stroke-linejoin="round"/>
<path id="Vector_5" d="M13 6.5V19.5" stroke="#484848" stroke-width="1.8" stroke-linecap="round" stroke-linejoin="round"/>
<path id="Vector_6" d="M21.6667 19.5V15.1667C21.6667 13 20.5834 11.9167 18.4167 11.9167H7.58341C5.41675 11.9167 4.33341 13 4.33341 15.1667V19.5" stroke="#484848" stroke-width="1.8" stroke-linecap="round" stroke-linejoin="round"/>
</g>
</svg>
