<svg width="18" height="18" viewBox="0 0 18 18" fill="none" xmlns="http://www.w3.org/2000/svg">
<g id="Edit">
<g id="edit">
<path id="Vector" d="M8.25 1.5H6.75C3 1.5 1.5 3 1.5 6.75V11.25C1.5 15 3 16.5 6.75 16.5H11.25C15 16.5 16.5 15 16.5 11.25V9.75" stroke="#484848" stroke-width="1.5" stroke-linecap="round" stroke-linejoin="round"/>
<path id="Vector_2" d="M12.03 2.26507L6.12003 8.17507C5.89503 8.40007 5.67003 8.84257 5.62503 9.16507L5.30253 11.4226C5.18253 12.2401 5.76003 12.8101 6.57753 12.6976L8.83503 12.3751C9.15003 12.3301 9.59253 12.1051 9.82503 11.8801L15.735 5.97007C16.755 4.95007 17.235 3.76507 15.735 2.26507C14.235 0.765067 13.05 1.24507 12.03 2.26507Z" stroke="#484848" stroke-width="1.5" stroke-miterlimit="10" stroke-linecap="round" stroke-linejoin="round"/>
<path id="Vector_3" d="M11.1825 3.11255C11.685 4.90505 13.0875 6.30755 14.8875 6.81755" stroke="#484848" stroke-width="1.5" stroke-miterlimit="10" stroke-linecap="round" stroke-linejoin="round"/>
</g>
</g>
</svg>
