<svg width="157" height="157" viewBox="0 0 157 157" fill="none" xmlns="http://www.w3.org/2000/svg">
<path d="M143.917 72.6124V45.1374C143.917 22.2416 134.758 13.0833 111.862 13.0833H84.3874C61.4916 13.0833 52.3333 22.2416 52.3333 45.1374V52.3333H72.6124C95.5083 52.3333 104.667 61.4916 104.667 84.3874V104.667H111.862C134.758 104.667 143.917 95.5083 143.917 72.6124Z" stroke="#FF4949" stroke-width="10" stroke-linecap="round" stroke-linejoin="round"/>
<path d="M104.667 111.862V84.3874C104.667 61.4916 95.5083 52.3333 72.6124 52.3333H45.1374C22.2416 52.3333 13.0833 61.4916 13.0833 84.3874V111.862C13.0833 134.758 22.2416 143.917 45.1374 143.917H72.6124C95.5083 143.917 104.667 134.758 104.667 111.862Z" stroke="#FF4949" stroke-width="10" stroke-linecap="round" stroke-linejoin="round"/>
<path d="M73 112L45 83" stroke="#FF4949" stroke-width="10" stroke-miterlimit="10" stroke-linecap="round" stroke-linejoin="round"/>
<path d="M73 84L44 112" stroke="#FF4949" stroke-width="10" stroke-miterlimit="10" stroke-linecap="round" stroke-linejoin="round"/>
</svg>
