<svg width="50" height="50" viewBox="0 0 50 50" fill="none" xmlns="http://www.w3.org/2000/svg">
<g id="Group 2">
<rect id="Rectangle 1" width="50" height="50" rx="25" fill="#FFCA11"/>
<rect id="Rectangle 2" x="4.16663" y="4.16666" width="41.6667" height="41.6667" rx="20.8333" fill="white" stroke="#252A3E"/>
<path id="-" d="M29.4754 27C29.1585 27 29 26.8333 29 26.5V25.5C29 25.1667 29.1585 25 29.4754 25H34.5246C34.8415 25 35 25.1667 35 25.5V26.5C35 26.8333 34.8415 27 34.5246 27H29.4754Z" fill="black"/>
<path id="-_2" d="M15.2377 27C15.0792 27 15 26.8333 15 26.5V25.5C15 25.1667 15.0792 25 15.2377 25H17.7623C17.9208 25 18 25.1667 18 25.5V26.5C18 26.8333 17.9208 27 17.7623 27H15.2377Z" fill="black"/>
<path id="K" d="M21 17.5592L24.0535 17.1367L24.1394 25.1769L24.7157 25.2763L29.3266 17L32 18.6031C31.534 19.6221 30.9495 20.6411 30.2464 21.6601L28.7012 23.8472L27.7692 25.0526C27.4749 25.4254 27.201 25.7444 26.9476 26.0095C27.5935 26.6806 28.0758 27.1983 28.3946 27.5629C30.0052 29.4683 31.1538 30.9968 31.8406 32.1484L29.3266 34L25.0836 27.3889L24.0412 27.8735L23.8328 33.2917L21.0981 33.5402L21 17.5592ZM22.7536 28.4576C22.7536 28.4659 22.7536 28.47 22.7536 28.47C22.7618 28.47 22.7659 28.4659 22.7659 28.4576H22.7536Z" fill="black"/>
</g>
</svg>
