<svg width="40" height="40" viewBox="0 0 40 40" fill="none" xmlns="http://www.w3.org/2000/svg">
<g id="vuesax/linear/money-send">
<g id="vuesax/linear/coin">
<path id="Vector (Stroke)" fill-rule="evenodd" clip-rule="evenodd" d="M13.7209 19.2093C14.1062 19.2093 14.4185 19.5217 14.4185 19.907C14.4185 22.2907 16.6647 24.1861 19.7674 24.1861C22.87 24.1861 25.1162 22.2907 25.1162 19.907C25.1162 19.5217 25.4286 19.2093 25.8139 19.2093C26.1992 19.2093 26.5116 19.5217 26.5116 19.907V23.3489C26.5116 26.7251 23.3973 29.3023 19.7674 29.3023C16.1375 29.3023 13.0232 26.7251 13.0232 23.3489V19.907C13.0232 19.5217 13.3356 19.2093 13.7209 19.2093ZM14.4196 23.4394C14.4759 25.83 16.7562 27.907 19.7674 27.907C22.7786 27.907 25.0588 25.83 25.1151 23.4394C23.8567 24.7924 21.8836 25.5814 19.7674 25.5814C17.6512 25.5814 15.6781 24.7924 14.4196 23.4394Z" fill="#FFC600"/>
<path id="Vector (Stroke)_2" fill-rule="evenodd" clip-rule="evenodd" d="M19.7674 10.6977C18.2556 10.6977 16.9132 11.2265 15.9471 12.0698L15.9468 12.0701C14.9895 12.9046 14.4185 14.0324 14.4185 15.2558C14.4185 15.9716 14.6145 16.6274 14.958 17.1897L14.9589 17.191C15.8016 18.5773 17.5935 19.5349 19.7674 19.5349C21.9412 19.5349 23.7331 18.5773 24.5759 17.191L24.5767 17.1897C24.9203 16.6274 25.1162 15.9716 25.1162 15.2558C25.1162 14.0338 24.5464 12.9055 23.5878 12.0606C22.6208 11.2258 21.278 10.6977 19.7674 10.6977ZM15.0298 11.0183C16.2591 9.94545 17.9305 9.30231 19.7674 9.30231C21.6043 9.30231 23.2745 9.94539 24.5027 11.0071L24.5075 11.0112L24.5075 11.0112C25.7242 12.0823 26.5116 13.5765 26.5116 15.2558C26.5116 16.2327 26.2425 17.1394 25.7678 17.9166C24.6197 19.8044 22.3188 20.9302 19.7674 20.9302C17.216 20.9302 14.9152 19.8044 13.7671 17.9167C13.2923 17.1395 13.0232 16.2328 13.0232 15.2558C13.0232 13.577 13.8102 12.0817 15.0295 11.0186" fill="#FFC600"/>
<path id="Vector (Stroke)_3" fill-rule="evenodd" clip-rule="evenodd" d="M19.7674 10.6977C16.7182 10.6977 14.4185 12.8273 14.4185 15.2558V19.907C14.4185 22.2907 16.6647 24.186 19.7674 24.186C22.87 24.186 25.1162 22.2907 25.1162 19.907V15.2558C25.1162 14.0338 24.5464 12.9055 23.5878 12.0606C22.6208 11.2258 21.278 10.6977 19.7674 10.6977ZM13.0232 15.2558C13.0232 11.8796 16.1375 9.30231 19.7674 9.30231C21.6043 9.30231 23.2745 9.94539 24.5027 11.0071L24.5075 11.0112L24.5075 11.0112C25.7242 12.0823 26.5116 13.5765 26.5116 15.2558V19.907C26.5116 23.3279 23.3438 25.5814 19.7674 25.5814C16.191 25.5814 13.0232 23.3279 13.0232 19.907V15.2558Z" fill="#FFC600"/>
</g>
<path id="Vector (Stroke)_4" fill-rule="evenodd" clip-rule="evenodd" d="M20 2.7907C10.5009 2.7907 2.7907 10.5009 2.7907 20C2.7907 29.4991 10.5009 37.2093 20 37.2093C29.4991 37.2093 37.2093 29.4991 37.2093 20C37.2093 19.2294 37.834 18.6047 38.6047 18.6047C39.3753 18.6047 40 19.2294 40 20C40 31.0404 31.0404 40 20 40C8.9596 40 0 31.0404 0 20C0 8.9596 8.9596 0 20 0C20.7706 0 21.3953 0.624719 21.3953 1.39535C21.3953 2.16598 20.7706 2.7907 20 2.7907Z" fill="#484848"/>
<path id="Vector (Stroke)_5" fill-rule="evenodd" clip-rule="evenodd" d="M29.7676 1.39535C29.7676 0.624719 30.3923 0 31.1629 0H38.6048C39.3754 0 40.0001 0.624719 40.0001 1.39535V8.83721C40.0001 9.60784 39.3754 10.2326 38.6048 10.2326C37.8342 10.2326 37.2094 9.60784 37.2094 8.83721V2.7907H31.1629C30.3923 2.7907 29.7676 2.16598 29.7676 1.39535Z" fill="#484848"/>
<path id="Vector (Stroke)_6" fill-rule="evenodd" clip-rule="evenodd" d="M39.5913 0.408688C40.1362 0.953606 40.1362 1.83709 39.5913 2.38201L30.289 11.6843C29.7441 12.2293 28.8606 12.2293 28.3157 11.6843C27.7708 11.1394 27.7708 10.2559 28.3157 9.71101L37.618 0.408688C38.1629 -0.136229 39.0464 -0.136229 39.5913 0.408688Z" fill="#484848"/>
</g>
</svg>
