<svg width="26" height="26" viewBox="0 0 26 26" fill="none" xmlns="http://www.w3.org/2000/svg">
<g id="notification-bing">
<path id="Vector" d="M13 6.97668V10.5842" stroke="black" stroke-width="1.6" stroke-miterlimit="10" stroke-linecap="round"/>
<path id="Vector_2" d="M13.0225 2.16666C9.03587 2.16666 5.80753 5.39499 5.80753 9.38166V11.6567C5.80753 12.3933 5.5042 13.4983 5.12503 14.1267L3.7492 16.4233C2.9042 17.8425 3.4892 19.4242 5.0492 19.9442C10.2275 21.6667 15.8284 21.6667 21.0067 19.9442C22.4692 19.4567 23.0975 17.745 22.3067 16.4233L20.9309 14.1267C20.5517 13.4983 20.2484 12.3825 20.2484 11.6567V9.38166C20.2375 5.41666 16.9875 2.16666 13.0225 2.16666Z" stroke="black" stroke-width="1.6" stroke-miterlimit="10" stroke-linecap="round"/>
<path id="Vector_3" d="M16.6076 20.3883C16.6076 22.3708 14.9826 23.9958 13.0001 23.9958C12.0142 23.9958 11.1042 23.5842 10.4542 22.9342C9.80424 22.2842 9.39258 21.3742 9.39258 20.3883" stroke="black" stroke-width="1.6" stroke-miterlimit="10"/>
</g>
</svg>
