<svg width="26" height="26" viewBox="0 0 26 26" fill="none" xmlns="http://www.w3.org/2000/svg">
<g id="user-octagon">
<path id="Vector" d="M22.8368 9.29503V16.705C22.8368 17.9183 22.1868 19.045 21.1359 19.6625L14.7009 23.3784C13.6501 23.985 12.3501 23.985 11.2884 23.3784L4.85342 19.6625C3.80259 19.0559 3.15259 17.9292 3.15259 16.705V9.29503C3.15259 8.08169 3.80259 6.95498 4.85342 6.33748L11.2884 2.62166C12.3393 2.01499 13.6393 2.01499 14.7009 2.62166L21.1359 6.33748C22.1868 6.95498 22.8368 8.07086 22.8368 9.29503Z" stroke="black" stroke-width="1.8" stroke-linecap="round" stroke-linejoin="round"/>
<g id="Group">
<path id="Vector_2" d="M13 11.9167C14.3941 11.9167 15.5242 10.7865 15.5242 9.39247C15.5242 7.99841 14.3941 6.86835 13 6.86835C11.6059 6.86835 10.4758 7.99841 10.4758 9.39247C10.4758 10.7865 11.6059 11.9167 13 11.9167Z" stroke="black" stroke-width="1.8" stroke-linecap="round" stroke-linejoin="round"/>
<path id="Vector_3" d="M17.3333 18.0483C17.3333 16.0983 15.3941 14.5167 13 14.5167C10.6058 14.5167 8.66663 16.0983 8.66663 18.0483" stroke="black" stroke-width="1.8" stroke-linecap="round" stroke-linejoin="round"/>
</g>
</g>
</svg>
