<svg width="26" height="26" viewBox="0 0 26 26" fill="none" xmlns="http://www.w3.org/2000/svg">
<g id="vuesax/linear/user-square">
<g id="user-square">
<path id="Vector" d="M19.652 23.4214C18.6986 23.7031 17.572 23.8331 16.2503 23.8331H9.7503C8.42863 23.8331 7.30197 23.7031 6.34863 23.4214C6.58697 20.6047 9.47947 18.3839 13.0003 18.3839C16.5211 18.3839 19.4136 20.6047 19.652 23.4214Z" stroke="#484848" stroke-width="1.8" stroke-linecap="round" stroke-linejoin="round"/>
<path id="Vector_2" d="M16.2501 2.16666H9.75008C4.33341 2.16666 2.16675 4.33332 2.16675 9.74999V16.25C2.16675 20.345 3.40175 22.5875 6.34842 23.4217C6.58675 20.605 9.47925 18.3841 13.0001 18.3841C16.5209 18.3841 19.4134 20.605 19.6517 23.4217C22.5984 22.5875 23.8334 20.345 23.8334 16.25V9.74999C23.8334 4.33332 21.6667 2.16666 16.2501 2.16666ZM13.0001 15.3508C10.8551 15.3508 9.12175 13.6067 9.12175 11.4617C9.12175 9.31668 10.8551 7.58332 13.0001 7.58332C15.1451 7.58332 16.8784 9.31668 16.8784 11.4617C16.8784 13.6067 15.1451 15.3508 13.0001 15.3508Z" stroke="#484848" stroke-width="1.8" stroke-linecap="round" stroke-linejoin="round"/>
<path id="Vector_3" d="M16.8785 11.4617C16.8785 13.6067 15.1452 15.3508 13.0002 15.3508C10.8552 15.3508 9.12183 13.6067 9.12183 11.4617C9.12183 9.3167 10.8552 7.58334 13.0002 7.58334C15.1452 7.58334 16.8785 9.3167 16.8785 11.4617Z" stroke="#484848" stroke-width="1.8" stroke-linecap="round" stroke-linejoin="round"/>
</g>
</g>
</svg>
